<svg width="1405" height="2548" viewBox="0 0 1405 2548" fill="none" xmlns="http://www.w3.org/2000/svg">
<g opacity="0.5">
<path d="M467 1V2547" stroke="black" stroke-opacity="0.5"/>
<path d="M509 1V2547" stroke="black" stroke-opacity="0.5"/>
<path d="M552 1V2547" stroke="black" stroke-opacity="0.5"/>
<path d="M594 1V2547" stroke="black" stroke-opacity="0.5"/>
<path d="M636 1V2547" stroke="black" stroke-opacity="0.5"/>
<path d="M679 1V2547" stroke="black" stroke-opacity="0.5"/>
<path d="M721 1V2547" stroke="black" stroke-opacity="0.5"/>
<path d="M764 1V2547" stroke="black" stroke-opacity="0.5"/>
<path d="M806 1V2547" stroke="black" stroke-opacity="0.5"/>
<path d="M849 1V2547" stroke="black" stroke-opacity="0.5"/>
<path d="M892 1V2547" stroke="black" stroke-opacity="0.5"/>
<path d="M934 1V2547" stroke="black" stroke-opacity="0.5"/>
<path d="M977 1V2547" stroke="black" stroke-opacity="0.5"/>
<path d="M1020 1V2547" stroke="black" stroke-opacity="0.5"/>
<path d="M1063 1V2547" stroke="black" stroke-opacity="0.5"/>
<path d="M1105 1V2547" stroke="black" stroke-opacity="0.5"/>
<path d="M1148 1V2547" stroke="black" stroke-opacity="0.5"/>
<path d="M1191 1V2547" stroke="black" stroke-opacity="0.5"/>
<path d="M1234 1V2547" stroke="black" stroke-opacity="0.5"/>
<path d="M1276 1V2547" stroke="black" stroke-opacity="0.5"/>
<path d="M1319 1V2547" stroke="black" stroke-opacity="0.5"/>
<path d="M1362 1V2547" stroke="black" stroke-opacity="0.5"/>
<path d="M42 1V2547" stroke="black" stroke-opacity="0.5"/>
<path d="M85 1V2547" stroke="black" stroke-opacity="0.5"/>
<path d="M127 1V2547" stroke="black" stroke-opacity="0.5"/>
<path d="M170 1V2547" stroke="black" stroke-opacity="0.5"/>
<path d="M212 1V2547" stroke="black" stroke-opacity="0.5"/>
<path d="M255 1V2547" stroke="black" stroke-opacity="0.5"/>
<path d="M297 1V2547" stroke="black" stroke-opacity="0.5"/>
<path d="M339 1V2547" stroke="black" stroke-opacity="0.5"/>
<path d="M382 1V2547" stroke="black" stroke-opacity="0.5"/>
<path d="M424 1V2547" stroke="black" stroke-opacity="0.5"/>
<path d="M0 425.129H1405" stroke="black" stroke-opacity="0.5"/>
<path d="M0 382.713H1405" stroke="black" stroke-opacity="0.5"/>
<path d="M0 340.292H1405" stroke="black" stroke-opacity="0.5"/>
<path d="M0 297.885H1405" stroke="black" stroke-opacity="0.5"/>
<path d="M0 255.487H1405" stroke="black" stroke-opacity="0.5"/>
<path d="M0 213.067H1405" stroke="black" stroke-opacity="0.5"/>
<path d="M0 170.66H1405" stroke="black" stroke-opacity="0.5"/>
<path d="M0 128.24H1405" stroke="black" stroke-opacity="0.5"/>
<path d="M0 85.8267H1405" stroke="black" stroke-opacity="0.5"/>
<path d="M0 43.4109H1405" stroke="black" stroke-opacity="0.5"/>
<path d="M0 1.00006H1405" stroke="black" stroke-opacity="0.5"/>
<path d="M0 806.85H1405" stroke="black" stroke-opacity="0.5"/>
<path d="M0 722.023H1405" stroke="black" stroke-opacity="0.5"/>
<path d="M0 764.333H1405" stroke="black" stroke-opacity="0.5"/>
<path d="M0 848.955H1405" stroke="black" stroke-opacity="0.5"/>
<path d="M0 891.556H1405" stroke="black" stroke-opacity="0.5"/>
<path d="M0 934.156H1405" stroke="black" stroke-opacity="0.5"/>
<path d="M0 976.758H1405" stroke="black" stroke-opacity="0.5"/>
<path d="M0 1019.36H1405" stroke="black" stroke-opacity="0.5"/>
<path d="M0 1061.96H1405" stroke="black" stroke-opacity="0.5"/>
<path d="M0 1104.56H1405" stroke="black" stroke-opacity="0.5"/>
<path d="M0 1147.16H1405" stroke="black" stroke-opacity="0.5"/>
<path d="M0 1189.76H1405" stroke="black" stroke-opacity="0.5"/>
<path d="M0 1232.36H1405" stroke="black" stroke-opacity="0.5"/>
<path d="M0 1274.97H1405" stroke="black" stroke-opacity="0.5"/>
<path d="M0 1317.57H1405" stroke="black" stroke-opacity="0.5"/>
<path d="M0 1360.17H1405" stroke="black" stroke-opacity="0.5"/>
<path d="M0 679.61H1405" stroke="black" stroke-opacity="0.5"/>
<path d="M0 637.2H1405" stroke="black" stroke-opacity="0.5"/>
<path d="M0 594.782H1405" stroke="black" stroke-opacity="0.5"/>
<path d="M0 552.37H1405" stroke="black" stroke-opacity="0.5"/>
<path d="M0 509.951H1405" stroke="black" stroke-opacity="0.5"/>
<path d="M0 467.54H1405" stroke="black" stroke-opacity="0.5"/>
<path d="M0 1825.13H1405" stroke="black" stroke-opacity="0.5"/>
<path d="M0 1782.71H1405" stroke="black" stroke-opacity="0.5"/>
<path d="M0 1740.29H1405" stroke="black" stroke-opacity="0.5"/>
<path d="M0 1697.89H1405" stroke="black" stroke-opacity="0.5"/>
<path d="M0 1655.49H1405" stroke="black" stroke-opacity="0.5"/>
<path d="M0 1613.07H1405" stroke="black" stroke-opacity="0.5"/>
<path d="M0 1570.66H1405" stroke="black" stroke-opacity="0.5"/>
<path d="M0 1528.24H1405" stroke="black" stroke-opacity="0.5"/>
<path d="M0 1485.83H1405" stroke="black" stroke-opacity="0.5"/>
<path d="M0 1443.41H1405" stroke="black" stroke-opacity="0.5"/>
<path d="M0 1401H1405" stroke="black" stroke-opacity="0.5"/>
<path d="M0 2206.85H1405" stroke="black" stroke-opacity="0.5"/>
<path d="M0 2122.02H1405" stroke="black" stroke-opacity="0.5"/>
<path d="M0 2164.33H1405" stroke="black" stroke-opacity="0.5"/>
<path d="M0 2248.95H1405" stroke="black" stroke-opacity="0.5"/>
<path d="M0 2291.56H1405" stroke="black" stroke-opacity="0.5"/>
<path d="M0 2334.16H1405" stroke="black" stroke-opacity="0.5"/>
<path d="M0 2376.76H1405" stroke="black" stroke-opacity="0.5"/>
<path d="M0 2419.36H1405" stroke="black" stroke-opacity="0.5"/>
<path d="M0 2461.96H1405" stroke="black" stroke-opacity="0.5"/>
<path d="M0 2504.56H1405" stroke="black" stroke-opacity="0.5"/>
<path d="M0 2547.16H1405" stroke="black" stroke-opacity="0.5"/>
<path d="M0 2079.61H1405" stroke="black" stroke-opacity="0.5"/>
<path d="M0 2037.2H1405" stroke="black" stroke-opacity="0.5"/>
<path d="M0 1994.78H1405" stroke="black" stroke-opacity="0.5"/>
<path d="M0 1952.37H1405" stroke="black" stroke-opacity="0.5"/>
<path d="M0 1909.95H1405" stroke="black" stroke-opacity="0.5"/>
<path d="M0 1867.54H1405" stroke="black" stroke-opacity="0.5"/>
</g>
</svg>
