<svg xmlns="http://www.w3.org/2000/svg" xmlns:xlink="http://www.w3.org/1999/xlink" width="500" zoomAndPan="magnify" viewBox="0 0 375 74.999997" height="100" preserveAspectRatio="xMidYMid meet" version="1.0"><defs><g/></defs><g fill="rgb(100%, 0%, 100%)" fill-opacity="1"><g transform="translate(9.02281, 50.177432)"><g><path d="M 19.582031 0.390625 C 29.351562 0.390625 36.464844 -0.9375 36.464844 -8.207031 C 36.464844 -15.085938 29.78125 -15.632812 18.996094 -16.257812 C 10.511719 -16.765625 8.675781 -17.3125 8.675781 -19.699219 C 8.675781 -21.964844 10.511719 -22.785156 17.976562 -22.785156 C 25.914062 -22.785156 29.117188 -21.886719 29.117188 -18.449219 L 35.292969 -18.449219 C 35.292969 -25.167969 29 -27.75 18.761719 -27.75 C 8.675781 -27.75 2.5 -26.03125 2.5 -20.011719 C 2.5 -13.914062 7.230469 -12.078125 18.996094 -11.492188 C 28.53125 -10.980469 30.289062 -10.589844 30.289062 -7.972656 C 30.289062 -5.550781 27.671875 -4.574219 19.972656 -4.574219 C 10.394531 -4.574219 7.699219 -6.058594 7.699219 -9.378906 L 1.523438 -9.378906 C 1.523438 -1.523438 8.363281 0.390625 19.582031 0.390625 Z M 19.582031 0.390625 "/></g></g></g><g fill="rgb(100%, 0%, 100%)" fill-opacity="1"><g transform="translate(47.010627, 50.177432)"><g><path d="M 1.914062 0 L 8.089844 0 L 8.089844 -11.101562 L 32.085938 -11.101562 L 32.085938 0 L 38.261719 0 L 38.261719 -27.359375 L 32.085938 -27.359375 L 32.085938 -16.257812 L 8.089844 -16.257812 L 8.089844 -27.359375 L 1.914062 -27.359375 Z M 1.914062 0 "/></g></g></g><g fill="rgb(0%, 100%, 100%)" fill-opacity="1"><g transform="translate(6.497914, 48.890933)"><g><path d="M 19.582031 0.390625 C 29.351562 0.390625 36.464844 -0.9375 36.464844 -8.207031 C 36.464844 -15.085938 29.78125 -15.632812 18.996094 -16.257812 C 10.511719 -16.765625 8.675781 -17.3125 8.675781 -19.699219 C 8.675781 -21.964844 10.511719 -22.785156 17.976562 -22.785156 C 25.914062 -22.785156 29.117188 -21.886719 29.117188 -18.449219 L 35.292969 -18.449219 C 35.292969 -25.167969 29 -27.75 18.761719 -27.75 C 8.675781 -27.75 2.5 -26.03125 2.5 -20.011719 C 2.5 -13.914062 7.230469 -12.078125 18.996094 -11.492188 C 28.53125 -10.980469 30.289062 -10.589844 30.289062 -7.972656 C 30.289062 -5.550781 27.671875 -4.574219 19.972656 -4.574219 C 10.394531 -4.574219 7.699219 -6.058594 7.699219 -9.378906 L 1.523438 -9.378906 C 1.523438 -1.523438 8.363281 0.390625 19.582031 0.390625 Z M 19.582031 0.390625 "/></g></g></g><g fill="rgb(0%, 100%, 100%)" fill-opacity="1"><g transform="translate(44.485731, 48.890933)"><g><path d="M 1.914062 0 L 8.089844 0 L 8.089844 -11.101562 L 32.085938 -11.101562 L 32.085938 0 L 38.261719 0 L 38.261719 -27.359375 L 32.085938 -27.359375 L 32.085938 -16.257812 L 8.089844 -16.257812 L 8.089844 -27.359375 L 1.914062 -27.359375 Z M 1.914062 0 "/></g></g></g><g fill="rgb(71.369934%, 100%, 59.21936%)" fill-opacity="1"><g transform="translate(7.760362, 49.534183)"><g><path d="M 19.582031 0.390625 C 29.351562 0.390625 36.464844 -0.9375 36.464844 -8.207031 C 36.464844 -15.085938 29.78125 -15.632812 18.996094 -16.257812 C 10.511719 -16.765625 8.675781 -17.3125 8.675781 -19.699219 C 8.675781 -21.964844 10.511719 -22.785156 17.976562 -22.785156 C 25.914062 -22.785156 29.117188 -21.886719 29.117188 -18.449219 L 35.292969 -18.449219 C 35.292969 -25.167969 29 -27.75 18.761719 -27.75 C 8.675781 -27.75 2.5 -26.03125 2.5 -20.011719 C 2.5 -13.914062 7.230469 -12.078125 18.996094 -11.492188 C 28.53125 -10.980469 30.289062 -10.589844 30.289062 -7.972656 C 30.289062 -5.550781 27.671875 -4.574219 19.972656 -4.574219 C 10.394531 -4.574219 7.699219 -6.058594 7.699219 -9.378906 L 1.523438 -9.378906 C 1.523438 -1.523438 8.363281 0.390625 19.582031 0.390625 Z M 19.582031 0.390625 "/></g></g></g><g fill="rgb(71.369934%, 100%, 59.21936%)" fill-opacity="1"><g transform="translate(45.748179, 49.534183)"><g><path d="M 1.914062 0 L 8.089844 0 L 8.089844 -11.101562 L 32.085938 -11.101562 L 32.085938 0 L 38.261719 0 L 38.261719 -27.359375 L 32.085938 -27.359375 L 32.085938 -16.257812 L 8.089844 -16.257812 L 8.089844 -27.359375 L 1.914062 -27.359375 Z M 1.914062 0 "/></g></g></g><path stroke-linecap="butt" transform="matrix(0.75, 0, 0, 0.75, 86.176114, 19.911549)" fill="none" stroke-linejoin="miter" d="M 25.18185 38.524188 C 41.171435 38.524188 48.103727 31.586687 48.103727 19.706478 C 48.103727 7.888769 41.171435 1.003352 25.18185 1.003352 C 9.124557 1.003352 2.254765 7.82106 2.254765 19.706478 C 2.254765 31.638771 9.124557 38.524188 25.18185 38.524188 Z M 25.18185 31.586687 C 14.911016 31.586687 10.483932 28.154395 10.483932 19.706478 C 10.483932 11.321061 14.864141 7.935644 25.18185 7.935644 C 35.499559 7.935644 39.87456 11.373144 39.87456 19.706478 C 39.87456 28.102312 35.447476 31.586687 25.18185 31.586687 Z M 52.697477 37.998146 L 60.926645 37.998146 L 60.926645 27.935645 L 81.348521 27.935645 C 89.640189 27.935645 95.317272 22.836687 95.317272 14.706478 C 95.317272 6.576269 89.640189 1.524185 81.348521 1.524185 L 52.697477 1.524185 Z M 60.926645 21.01377 L 60.926645 8.461685 L 78.749563 8.461685 C 81.983938 8.461685 87.082897 8.461685 87.082897 14.706478 C 87.082897 21.01377 81.983938 21.01377 78.749563 21.01377 Z M 117.666233 37.998146 L 125.911025 37.998146 L 125.911025 8.461685 L 144.192276 8.461685 L 144.192276 1.524185 L 99.384981 1.524185 L 99.384981 8.461685 L 117.666233 8.461685 Z M 148.786027 37.998146 L 157.020402 37.998146 L 157.020402 1.524185 L 148.786027 1.524185 Z M 162.124569 37.998146 L 170.358945 37.998146 L 170.358945 11.268977 L 186.97353 37.998146 L 193.181864 37.998146 L 209.744365 11.268977 L 209.744365 37.998146 L 217.989157 37.998146 L 217.989157 1.524185 L 206.411031 1.524185 L 190.051655 28.456479 L 173.692279 1.524185 L 162.124569 1.524185 Z M 223.093324 37.998146 L 231.3277 37.998146 L 231.3277 1.524185 L 223.093324 1.524185 Z M 259.983952 38.524188 C 273.009995 38.524188 282.499579 36.753354 282.499579 27.060645 C 282.499579 17.88877 273.582912 17.159603 259.207911 16.321061 C 247.89541 15.649186 245.442285 14.909603 245.442285 11.742936 C 245.442285 8.711686 247.89541 7.617935 257.848536 7.617935 C 268.43187 7.617935 272.707912 8.815852 272.707912 13.409603 L 280.937079 13.409603 C 280.937079 4.440852 272.541245 1.003352 258.890202 1.003352 C 245.442285 1.003352 237.213117 3.295018 237.213117 11.321061 C 237.213117 19.45127 243.520409 21.893978 259.207911 22.680437 C 271.916245 23.35752 274.259995 23.878353 274.259995 27.362729 C 274.259995 30.597104 270.770412 31.904396 260.504786 31.904396 C 247.744368 31.904396 244.14541 29.920021 244.14541 25.492937 L 235.911034 25.492937 C 235.911034 35.966896 245.036035 38.524188 259.983952 38.524188 Z M 287.082913 37.998146 L 325.645416 37.998146 L 325.645416 31.383562 L 295.317289 31.383562 L 295.317289 22.883562 L 325.645416 22.883562 L 325.645416 16.63877 L 295.317289 16.63877 L 295.317289 8.138769 L 325.645416 8.138769 L 325.645416 1.524185 L 287.082913 1.524185 Z M 330.233958 37.998146 L 338.463126 37.998146 L 338.463126 27.935645 L 355.499585 27.935645 L 361.655836 37.998146 L 371.338128 37.998146 L 364.520419 26.956479 C 369.671461 25.175229 372.853753 20.852312 372.853753 14.706478 C 372.853753 6.576269 367.17667 1.524185 358.879794 1.524185 L 330.233958 1.524185 Z M 338.463126 21.01377 L 338.463126 8.461685 L 356.286044 8.461685 C 359.520419 8.461685 364.619378 8.461685 364.619378 14.706478 C 364.619378 21.01377 359.520419 21.01377 356.286044 21.01377 Z M 338.463126 21.01377 " stroke="rgb(0%, 0%, 0%)" stroke-width="1.954309" stroke-opacity="1" stroke-miterlimit="4"/></svg>