<svg xmlns="http://www.w3.org/2000/svg" xmlns:xlink="http://www.w3.org/1999/xlink" width="500" zoomAndPan="magnify" viewBox="0 0 375 74.999997" height="100" preserveAspectRatio="xMidYMid meet" version="1.0"><defs><g/></defs><g fill="rgb(100%, 0%, 100%)" fill-opacity="1"><g transform="translate(9.02281, 50.177432)"><g><path d="M 19.582031 0.390625 C 29.351562 0.390625 36.464844 -0.9375 36.464844 -8.207031 C 36.464844 -15.085938 29.78125 -15.632812 18.996094 -16.257812 C 10.511719 -16.765625 8.675781 -17.3125 8.675781 -19.699219 C 8.675781 -21.964844 10.511719 -22.785156 17.976562 -22.785156 C 25.914062 -22.785156 29.117188 -21.886719 29.117188 -18.449219 L 35.292969 -18.449219 C 35.292969 -25.167969 29 -27.75 18.761719 -27.75 C 8.675781 -27.75 2.5 -26.03125 2.5 -20.011719 C 2.5 -13.914062 7.230469 -12.078125 18.996094 -11.492188 C 28.53125 -10.980469 30.289062 -10.589844 30.289062 -7.972656 C 30.289062 -5.550781 27.671875 -4.574219 19.972656 -4.574219 C 10.394531 -4.574219 7.699219 -6.058594 7.699219 -9.378906 L 1.523438 -9.378906 C 1.523438 -1.523438 8.363281 0.390625 19.582031 0.390625 Z M 19.582031 0.390625 "/></g></g></g><g fill="rgb(100%, 0%, 100%)" fill-opacity="1"><g transform="translate(47.010627, 50.177432)"><g><path d="M 1.914062 0 L 8.089844 0 L 8.089844 -11.101562 L 32.085938 -11.101562 L 32.085938 0 L 38.261719 0 L 38.261719 -27.359375 L 32.085938 -27.359375 L 32.085938 -16.257812 L 8.089844 -16.257812 L 8.089844 -27.359375 L 1.914062 -27.359375 Z M 1.914062 0 "/></g></g></g><g fill="rgb(0%, 100%, 100%)" fill-opacity="1"><g transform="translate(6.497914, 48.890933)"><g><path d="M 19.582031 0.390625 C 29.351562 0.390625 36.464844 -0.9375 36.464844 -8.207031 C 36.464844 -15.085938 29.78125 -15.632812 18.996094 -16.257812 C 10.511719 -16.765625 8.675781 -17.3125 8.675781 -19.699219 C 8.675781 -21.964844 10.511719 -22.785156 17.976562 -22.785156 C 25.914062 -22.785156 29.117188 -21.886719 29.117188 -18.449219 L 35.292969 -18.449219 C 35.292969 -25.167969 29 -27.75 18.761719 -27.75 C 8.675781 -27.75 2.5 -26.03125 2.5 -20.011719 C 2.5 -13.914062 7.230469 -12.078125 18.996094 -11.492188 C 28.53125 -10.980469 30.289062 -10.589844 30.289062 -7.972656 C 30.289062 -5.550781 27.671875 -4.574219 19.972656 -4.574219 C 10.394531 -4.574219 7.699219 -6.058594 7.699219 -9.378906 L 1.523438 -9.378906 C 1.523438 -1.523438 8.363281 0.390625 19.582031 0.390625 Z M 19.582031 0.390625 "/></g></g></g><g fill="rgb(0%, 100%, 100%)" fill-opacity="1"><g transform="translate(44.485731, 48.890933)"><g><path d="M 1.914062 0 L 8.089844 0 L 8.089844 -11.101562 L 32.085938 -11.101562 L 32.085938 0 L 38.261719 0 L 38.261719 -27.359375 L 32.085938 -27.359375 L 32.085938 -16.257812 L 8.089844 -16.257812 L 8.089844 -27.359375 L 1.914062 -27.359375 Z M 1.914062 0 "/></g></g></g><g fill="rgb(71.369934%, 100%, 59.21936%)" fill-opacity="1"><g transform="translate(7.760362, 49.534183)"><g><path d="M 19.582031 0.390625 C 29.351562 0.390625 36.464844 -0.9375 36.464844 -8.207031 C 36.464844 -15.085938 29.78125 -15.632812 18.996094 -16.257812 C 10.511719 -16.765625 8.675781 -17.3125 8.675781 -19.699219 C 8.675781 -21.964844 10.511719 -22.785156 17.976562 -22.785156 C 25.914062 -22.785156 29.117188 -21.886719 29.117188 -18.449219 L 35.292969 -18.449219 C 35.292969 -25.167969 29 -27.75 18.761719 -27.75 C 8.675781 -27.75 2.5 -26.03125 2.5 -20.011719 C 2.5 -13.914062 7.230469 -12.078125 18.996094 -11.492188 C 28.53125 -10.980469 30.289062 -10.589844 30.289062 -7.972656 C 30.289062 -5.550781 27.671875 -4.574219 19.972656 -4.574219 C 10.394531 -4.574219 7.699219 -6.058594 7.699219 -9.378906 L 1.523438 -9.378906 C 1.523438 -1.523438 8.363281 0.390625 19.582031 0.390625 Z M 19.582031 0.390625 "/></g></g></g><g fill="rgb(71.369934%, 100%, 59.21936%)" fill-opacity="1"><g transform="translate(45.748179, 49.534183)"><g><path d="M 1.914062 0 L 8.089844 0 L 8.089844 -11.101562 L 32.085938 -11.101562 L 32.085938 0 L 38.261719 0 L 38.261719 -27.359375 L 32.085938 -27.359375 L 32.085938 -16.257812 L 8.089844 -16.257812 L 8.089844 -27.359375 L 1.914062 -27.359375 Z M 1.914062 0 "/></g></g></g><path stroke-linecap="butt" transform="matrix(0.814296, 0, 0, 0.814296, 86.176114, 19.911556)" fill="none" stroke-linejoin="miter" d="M 23.164732 36.48014 C 37.896592 36.48014 44.281516 30.095215 44.281516 19.148259 C 44.281516 8.263665 37.896592 1.921913 23.164732 1.921913 C 8.375308 1.921913 2.047948 8.201302 2.047948 19.148259 C 2.047948 30.138389 8.375308 36.48014 23.164732 36.48014 Z M 23.164732 30.095215 C 13.704874 30.095215 9.627348 26.929137 9.627348 19.148259 C 9.627348 11.424946 13.6617 8.306838 23.164732 8.306838 C 32.667765 8.306838 36.697319 11.472917 36.697319 19.148259 C 36.697319 26.881166 32.619794 30.095215 23.164732 30.095215 Z M 48.512549 36.000431 L 56.091949 36.000431 L 56.091949 26.732456 L 74.901333 26.732456 C 82.543095 26.732456 87.767125 22.031309 87.767125 14.543054 C 87.767125 7.054798 82.543095 2.401622 74.901333 2.401622 L 48.512549 2.401622 Z M 56.091949 20.357125 L 56.091949 8.791344 L 72.512383 8.791344 C 75.486578 8.791344 80.187725 8.791344 80.187725 14.543054 C 80.187725 20.357125 75.486578 20.357125 72.512383 20.357125 Z M 108.361027 36.000431 L 115.954818 36.000431 L 115.954818 8.791344 L 132.792599 8.791344 L 132.792599 2.401622 L 91.518448 2.401622 L 91.518448 8.791344 L 108.361027 8.791344 Z M 137.023631 36.000431 L 144.607828 36.000431 L 144.607828 2.401622 L 137.023631 2.401622 Z M 149.313772 36.000431 L 156.893172 36.000431 L 156.893172 11.376975 L 172.200682 36.000431 L 177.918812 36.000431 L 193.173554 11.376975 L 193.173554 36.000431 L 200.767345 36.000431 L 200.767345 2.401622 L 190.103417 2.401622 L 175.035761 27.212165 L 159.963309 2.401622 L 149.313772 2.401622 Z M 205.473289 36.000431 L 213.052689 36.000431 L 213.052689 2.401622 L 205.473289 2.401622 Z M 239.451068 36.48014 C 251.453383 36.48014 260.193679 34.853927 260.193679 25.921748 C 260.193679 17.474075 251.976266 16.802482 238.736301 16.030151 C 228.317025 15.411327 226.057596 14.73014 226.057596 11.81351 C 226.057596 9.021605 228.317025 8.014216 237.484261 8.014216 C 247.231945 8.014216 251.170355 9.117546 251.170355 13.348579 L 258.749755 13.348579 C 258.749755 5.087992 251.016848 1.921913 238.443679 1.921913 C 226.057596 1.921913 218.473399 4.032632 218.473399 11.424946 C 218.473399 18.913201 224.287471 21.163036 238.736301 21.892193 C 250.441198 22.511018 252.599888 22.990727 252.599888 26.204776 C 252.599888 29.178971 249.390635 30.387837 239.930777 30.387837 C 228.177909 30.387837 224.863121 28.560147 224.863121 24.482621 L 217.278924 24.482621 C 217.278924 34.124769 225.683423 36.48014 239.451068 36.48014 Z M 264.415117 36.000431 L 299.937558 36.000431 L 299.937558 29.908129 L 271.999314 29.908129 L 271.999314 22.07928 L 299.937558 22.07928 L 299.937558 16.322774 L 271.999314 16.322774 L 271.999314 8.493925 L 299.937558 8.493925 L 299.937558 2.401622 L 264.415117 2.401622 Z M 304.158996 36.000431 L 311.743193 36.000431 L 311.743193 26.732456 L 327.43447 26.732456 L 333.104629 36.000431 L 342.022417 36.000431 L 335.743028 25.825806 C 340.487349 24.185202 343.41837 20.203618 343.41837 14.543054 C 343.41837 7.054798 338.189543 2.401622 330.552578 2.401622 L 304.158996 2.401622 Z M 311.743193 20.357125 L 311.743193 8.791344 L 328.158831 8.791344 C 331.137823 8.791344 335.834173 8.791344 335.834173 14.543054 C 335.834173 20.357125 331.137823 20.357125 328.158831 20.357125 Z M 311.743193 20.357125 " stroke="rgb(100%, 100%, 100%)" stroke-width="1.38" stroke-opacity="1" stroke-miterlimit="4"/></svg>